<?xml version="1.0" encoding="utf-8"?>
<!-- Generator: Adobe Illustrator 22.1.0, SVG Export Plug-In . SVG Version: 6.00 Build 0)  -->
<svg version="1.1" id="Livello_1" xmlns="http://www.w3.org/2000/svg" xmlns:xlink="http://www.w3.org/1999/xlink" x="0px" y="0px"
	 viewBox="0 0 1470.3 222.3" style="enable-background:new 0 0 1470.3 222.3;" xml:space="preserve">
<style type="text/css">
	.st0{fill:#FFFFFF;}
</style>
<title>interno_verde</title>
<polygon class="st0" points="1041.7,180.4 1017.1,180.4 980,79.9 1004.6,79.9 1029.7,150.4 1053.4,79.9 1077.3,79.9 "/>
<path class="st0" d="M1145.7,104.4c-3.3-3.3-8.4-5.6-15.5-5.6c-7.4,0-13.5,3-17.1,7.4c-3.5,4.2-5.1,8.7-5.3,15h44.1
	C1151.8,114,1149.6,108.5,1145.7,104.4 M1176.3,138h-68.2c-0.2,7.4,2.6,14.4,7.4,18.9c4.1,3.8,9.5,5.9,15.1,5.9
	c7.1,0,11.4-1.3,14.9-4.6c2.4-2.2,4.1-5,4.9-8.1h23.5c-0.6,5.7-4.7,13.3-8.6,17.8c-8.6,9.6-21.4,13.5-34.3,13.5
	c-13.9,0-24.1-4.6-32.2-11.8c-10.2-9.2-15.7-22.8-15.7-38.5c0-15.4,4.9-29.1,14.7-38.5c7.7-7.4,18.6-12.2,32.6-12.2
	c15.1,0,28.8,5.7,37.3,17.8c7.5,10.5,9.2,21.5,8.8,33.5C1176.5,131.6,1176.3,136,1176.3,138"/>
<path class="st0" d="M1308.7,99.8c-6.3-0.2-12.4,2.7-16.3,7.6c-5,6.3-6.4,15-6.4,23.3s1.4,17.2,6.4,23.5c4,4.9,10,7.7,16.3,7.6
	c19.1,0,22.9-17.2,22.9-31.1S1327.7,99.8,1308.7,99.8 M1333.7,180.4l-1.6-12c-6,8.9-17.3,12.8-28.4,12.8c-8.9,0.1-17.6-2.7-24.7-8.1
	c-12-9.4-17.9-23.9-17.9-42c0-18.9,6-33.5,18.1-42.9c6.2-4.8,14.4-7.8,24.7-7.8c12.8,0,22.2,4.1,26.4,9.1V42.5h24.3v137.9H1333.7z"
	/>
<path class="st0" d="M1240.4,79.7c-4-0.1-7.9,0.7-11.4,2.5c-3.9,2.2-7.2,5.4-9.7,9.1V79.7h-22.2v100.6h22.2v-48.8
	c0-18.3,6.5-30.9,18.6-30.9c1.8,0,3.5,0.3,5.2,0.9l9.7-19.1C1248.9,80.8,1244.7,79.9,1240.4,79.7"/>
<path class="st0" d="M1439.5,104.4c-3.3-3.3-8.4-5.6-15.5-5.6c-7.4,0-13.5,3-17.1,7.4c-3.5,4.2-5.1,8.7-5.3,15h44.1
	C1445.6,114,1443.4,108.5,1439.5,104.4 M1470.1,138.1h-68.2c-0.2,7.4,2.6,14.4,7.4,18.9c4.1,3.8,9.5,5.9,15.1,5.9
	c7.1,0,11.4-1.3,14.9-4.6c2.4-2.2,4.1-5,4.9-8.1h23.5c-0.6,5.7-4.7,13.3-8.6,17.8c-8.6,9.6-21.4,13.5-34.3,13.5
	c-13.9,0-24.1-4.6-32.2-11.8c-10.2-9.2-15.7-22.8-15.7-38.5c0-15.4,4.9-29.1,14.7-38.5c7.7-7.4,18.6-12.2,32.6-12.2
	c15.1,0,28.8,5.7,37.3,17.8c7.5,10.5,9.2,21.5,8.8,33.5C1470.3,131.6,1470.1,136,1470.1,138.1"/>
<path class="st0" d="M390.6,178.6v-60.5c0-11.3-3.7-18.1-15.9-18.1c-8.1,0-13.5,5.2-16.6,12.2c-3.3,7.6-3.1,17.6-3.1,25.7v40.7
	h-23.1V78.1h19.4l1.7,15.2c5.7-10.2,17.2-14.8,28.3-14.8c20.5,0,32.6,14.4,32.6,34.4v65.7H390.6z"/>
<path class="st0" d="M776.6,178.6v-60.5c0-11.3-3.7-18.1-15.9-18.1c-8.1,0-13.5,5.2-16.7,12.2c-3.3,7.6-3.1,17.6-3.1,25.7v40.7
	h-23.1V78.1h19.4l1.7,15.2c5.7-10.2,17.2-14.8,28.3-14.8c20.5,0,32.5,14.4,32.5,34.4v65.7H776.6z"/>
<rect x="274.2" y="86.4" class="st0" width="22.2" height="92.1"/>
<path class="st0" d="M285.3,69.9c8,0,14.5-6.5,14.4-14.5S293.3,41,285.3,41c-8,0-14.4,6.5-14.4,14.5
	C270.8,63.5,277.3,69.9,285.3,69.9C285.3,69.9,285.3,69.9,285.3,69.9"/>
<path class="st0" d="M486.4,157.3c-7.5,0-10.8-3.2-10.8-10.6V97.2H500V78.1h-24.4V49.1l-23.3,6.6v22.3h-17.7v19.2h17.7v51.4
	c0,18.6,10.4,31.2,30,31.2c7.1-0.2,14.2-1.1,21.2-2.9l-10.3-20C490.9,157.2,488.8,157.2,486.4,157.3"/>
<path class="st0" d="M681.7,77.4c-4-0.1-7.9,0.8-11.4,2.5c-3.2,1.6-7,5.1-9.7,9.1V78.1h-22.2v100.5h22.2v-49.4
	c0-18.3,6.5-30.9,18.6-30.9c1.8,0,3.5,0.3,5.2,0.9l9.7-19.1C690.1,78.5,685.9,77.6,681.7,77.4"/>
<path class="st0" d="M826,128.4c-0.2-13.4,5.2-26.2,14.9-35.4c9.9-9.7,22-14.6,36.3-14.6c14.3,0,26.4,4.9,36.5,14.7
	c9.8,9.8,14.8,21.8,14.8,36.1c0,14.4-5,26.4-14.9,36.2c-9.9,9.7-22.2,14.6-36.7,14.5c-14.4,0-26.4-4.9-36.2-14.8
	C830.8,155.4,826,143.1,826,128.4 M848.6,128.8c0,9.6,2.6,17.2,7.7,22.8c5.3,5.6,12.2,8.5,20.8,8.5c8.6,0,15.5-2.8,20.8-8.4
	c5.2-5.6,7.8-13,7.8-22.4c0-9.3-2.6-16.8-7.8-22.4c-5.3-5.6-12.2-8.5-20.8-8.5c-8.5,0-15.3,2.8-20.6,8.5
	C851.3,112.6,848.6,119.9,848.6,128.8"/>
<path class="st0" d="M580.2,103c-3.3-3.3-8.4-5.6-15.5-5.6c-7.5,0-13.5,3-17.1,7.4c-3.5,4.2-5.1,8.7-5.3,15h44.1
	C586.3,112.6,584.2,107.1,580.2,103 M610.8,136.7h-68.2c-0.2,7.4,2.5,14.4,7.5,18.9c4.1,3.8,9.5,5.9,15.1,5.9
	c7.1,0,11.4-1.3,14.9-4.6c2.4-2.2,4.1-5,4.9-8.1h23.5c-0.6,5.7-4.7,13.3-8.6,17.8c-8.6,9.6-21.4,13.5-34.3,13.5
	c-13.9,0-24.1-4.6-32.2-11.8c-10.2-9.2-15.7-22.8-15.7-38.5c0-15.4,4.9-29,14.7-38.5C540,83.8,551,79,564.9,79
	c15.1,0,28.8,5.7,37.3,17.8c7.5,10.5,9.2,21.5,8.8,33.5C611,130.2,610.8,134.6,610.8,136.7"/>
<polygon class="st0" points="213.3,160 182.9,160 204.4,138.6 194.9,129.1 173.4,150.6 173.4,120.2 160.1,120.2 160.1,150.6 
	138.6,129.1 129.1,138.6 150.6,160 120.2,160 120.2,173.4 150.6,173.4 129.1,194.9 138.6,204.4 160.1,182.9 160.1,213.3 
	173.4,213.3 173.4,182.9 194.9,204.4 204.4,194.9 182.9,173.4 213.3,173.4 "/>
<path class="st0" d="M55.6,36.4l20.1,19l-20.1,20l-18.9-20L55.6,36.4z M27.1,83.1v27.8l28.5-28l28.2,28.3V82.9h27L83.2,55.6l28-27.8
	H82.9V0h-0.1L55.6,27.4L27.8,0v27.1H0l28.7,28.5L0,83.1H27.1z"/>
<polygon class="st0" points="213.4,27 213.4,0.4 198.6,15.2 198.6,0.3 183.7,15.2 183.7,0.4 172.8,11.3 172.8,67.6 "/>
<polygon class="st0" points="166.9,93.1 166.9,17.4 149.8,0.4 149.8,15.2 134.9,0.3 134.9,15.2 120.1,0.4 120.1,27 158.4,65.3 
	158.4,84.6 111.2,37.4 111.2,55.7 166.6,111.1 166.6,111.5 166.8,111.3 166.9,111.5 166.9,111.1 222.3,55.7 222.3,37.4 "/>
<polygon class="st0" points="111.2,148.6 111.2,128.4 55.6,187.8 0,128.4 0,148.6 46.1,197.9 55.6,208 65,197.9 "/>
<polygon class="st0" points="41.1,208 37.2,208 0,168.3 0,188.5 18.3,208 31.7,222.3 36.1,222.3 75.1,222.3 79.5,222.3 92.8,208 
	111.2,188.5 111.2,168.3 74.2,207.7 74,208 55.6,208 55.6,208 55.5,208 "/>
<polygon class="st0" points="83.1,139.6 56.5,168.1 29.8,139.6 56.5,111.2 "/>
</svg>
