<svg xmlns="http://www.w3.org/2000/svg" viewBox="0 0 1470.34 222.32"><title>interno_verde</title><polygon points="1041.68 180.38 1017.08 180.38 980.03 79.92 1004.61 79.92 1029.66 150.44 1053.44 79.92 1077.32 79.92 1041.68 180.38"/><path d="M1171.38,144.82c-3.34-3.33-8.44-5.55-15.5-5.55-7.45,0-13.53,3-17.06,7.4-3.53,4.25-5.1,8.69-5.29,15h44.12c-.19-7.21-2.35-12.76-6.27-16.83M1202,178.48h-68.25c-.19,7.4,2.55,14.43,7.45,18.87a22.19,22.19,0,0,0,15.1,5.92c7.07,0,11.38-1.29,14.91-4.62a17.3,17.3,0,0,0,4.9-8.14h23.54c-.59,5.73-4.71,13.32-8.63,17.76-8.63,9.61-21.38,13.5-34.32,13.5-13.93,0-24.13-4.63-32.17-11.84-10.19-9.25-15.69-22.75-15.69-38.47,0-15.36,4.91-29.05,14.71-38.48,7.65-7.4,18.63-12.21,32.56-12.21,15.1,0,28.83,5.74,37.26,17.76,7.46,10.54,9.22,21.46,8.83,33.48,0,0-.2,4.44-.2,6.47" transform="translate(-25.66 -40.44)"/><path d="M1334.32,140.19a20.3,20.3,0,0,0-16.33,7.59c-5,6.29-6.41,15-6.41,23.3s1.36,17.21,6.41,23.5a20.32,20.32,0,0,0,16.33,7.58c19.06,0,22.94-17.2,22.94-31.08s-3.88-30.89-22.94-30.89m25.09,80.63-1.56-12c-6,8.88-17.31,12.76-28.39,12.76a39.87,39.87,0,0,1-24.69-8.14c-12-9.43-17.89-23.86-17.89-42,0-18.87,6-33.49,18.08-42.92,6.23-4.81,14.39-7.77,24.7-7.77,12.83,0,22.16,4.07,26.44,9.07V82.9h24.3V220.82Z" transform="translate(-25.66 -40.44)"/><path d="M1266.08,120.18a24.86,24.86,0,0,0-11.43,2.46,28.54,28.54,0,0,0-9.72,9.13V120.18h-22.17V220.82h22.17V172c0-18.26,6.52-30.91,18.61-30.91a17.3,17.3,0,0,1,5.23.89l9.71-19.14a37.89,37.89,0,0,0-12.4-2.65" transform="translate(-25.66 -40.44)"/><path d="M1465.16,144.82c-3.34-3.33-8.44-5.55-15.5-5.55-7.45,0-13.53,3-17.06,7.4-3.53,4.25-5.1,8.69-5.29,15h44.12c-.19-7.21-2.35-12.76-6.27-16.83m30.59,33.66H1427.5c-.19,7.4,2.55,14.43,7.45,18.87a22.2,22.2,0,0,0,15.11,5.92c7.06,0,11.37-1.29,14.9-4.62a17.3,17.3,0,0,0,4.9-8.14h23.54c-.59,5.73-4.71,13.32-8.63,17.76-8.63,9.61-21.38,13.5-34.32,13.5-13.93,0-24.13-4.63-32.17-11.84-10.19-9.25-15.69-22.75-15.69-38.47,0-15.36,4.91-29.05,14.71-38.48,7.65-7.4,18.63-12.21,32.56-12.21,15.1,0,28.83,5.74,37.26,17.76,7.46,10.54,9.22,21.46,8.83,33.48,0,0-.2,4.44-.2,6.47" transform="translate(-25.66 -40.44)"/><path d="M416.25,219V158.49c0-11.28-3.7-18.12-15.91-18.12-8.14,0-13.5,5.18-16.65,12.21-3.33,7.58-3.14,17.57-3.14,25.71V219H357.43V118.5h19.42l1.67,15.21c5.74-10.18,17.21-14.8,28.3-14.8,20.54,0,32.56,14.43,32.56,34.4V219Z" transform="translate(-25.66 -40.44)"/><path d="M802.24,219V158.49c0-11.28-3.7-18.12-15.91-18.12-8.14,0-13.5,5.18-16.65,12.21-3.33,7.58-3.14,17.57-3.14,25.71V219H743.41V118.5h19.42l1.66,15.21c5.74-10.18,17.21-14.8,28.31-14.8,20.53,0,32.55,14.43,32.55,34.4V219Z" transform="translate(-25.66 -40.44)"/><rect x="274.23" y="86.38" width="22.17" height="92.14"/><path d="M311,110.37A14.47,14.47,0,1,0,296.5,95.9,14.47,14.47,0,0,0,311,110.37" transform="translate(-25.66 -40.44)"/><path d="M512.06,197.7c-7.45,0-10.8-3.17-10.8-10.62V137.69h24.41V118.5H501.26V89.58L478,96.17V118.5h-17.7v19.19H478v51.44c0,18.63,10.44,31.25,30,31.25a95.1,95.1,0,0,0,21.17-2.89l-10.28-20c-2.3.13-4.44.18-6.81.18" transform="translate(-25.66 -40.44)"/><path d="M707.35,117.81a24.89,24.89,0,0,0-11.43,2.47c-3.15,1.57-7,5.1-9.71,9.13V118.5H664V219H686.2V169.63c0-18.26,6.52-30.92,18.6-30.92a17.33,17.33,0,0,1,5.24.9l9.71-19.14a38,38,0,0,0-12.41-2.66" transform="translate(-25.66 -40.44)"/><path d="M851.64,168.87a47.68,47.68,0,0,1,14.88-35.38q14.88-14.58,36.26-14.58t36.46,14.68Q954,148.27,954,169.65q0,21.58-14.89,36.17T902.38,220.3q-21.57,0-36.16-14.78-14.58-14.58-14.58-36.65m22.66.39q0,14.38,7.69,22.76,7.88,8.47,20.79,8.48t20.79-8.38q7.78-8.37,7.78-22.37t-7.78-22.36q-7.89-8.47-20.79-8.48-12.72,0-20.6,8.48t-7.88,21.87" transform="translate(-25.66 -40.44)"/><path d="M605.89,143.43c-3.33-3.33-8.43-5.55-15.49-5.55-7.46,0-13.53,3-17.06,7.4-3.53,4.25-5.1,8.69-5.3,15h44.13c-.2-7.21-2.36-12.76-6.28-16.83m30.6,33.66H568.24c-.2,7.4,2.55,14.43,7.45,18.87a22.17,22.17,0,0,0,15.1,5.92c7.06,0,11.37-1.29,14.9-4.62a17.31,17.31,0,0,0,4.91-8.14h23.53c-.59,5.73-4.7,13.32-8.63,17.76-8.63,9.61-21.37,13.5-34.32,13.5-13.92,0-24.12-4.63-32.16-11.84-10.2-9.25-15.69-22.75-15.69-38.47,0-15.36,4.9-29,14.71-38.48,7.65-7.4,18.63-12.21,32.55-12.21,15.1,0,28.83,5.74,37.27,17.76,7.45,10.54,9.21,21.46,8.82,33.48,0,0-.19,4.44-.19,6.47" transform="translate(-25.66 -40.44)"/><polygon points="213.31 160.03 182.93 160.03 204.41 138.56 194.93 129.08 173.45 150.56 173.45 120.18 160.06 120.18 160.06 150.56 138.58 129.08 129.1 138.56 150.58 160.03 120.2 160.03 120.2 173.43 150.58 173.43 129.1 194.91 138.58 204.39 160.06 182.91 160.06 213.28 173.45 213.28 173.45 182.91 194.93 204.39 204.41 194.91 182.93 173.43 213.31 173.43 213.31 160.03"/><path d="M81.3,76.82l20.07,19-20.07,20-18.89-20ZM52.8,123.59v27.75l28.5-28,28.19,28.27V123.34h27L108.88,96l28-27.75H108.59V40.44h-.1L81.3,67.81,53.44,40.46V67.57H25.66L54.39,96.09l-28.73,27.5Z" transform="translate(-25.66 -40.44)"/><polygon points="213.41 26.96 213.41 0.39 198.58 15.21 198.58 0.31 183.68 15.21 183.68 0.36 172.78 11.26 172.79 67.56 213.41 26.96"/><polygon points="166.93 93.06 166.91 17.36 149.83 0.36 149.83 15.2 134.93 0.31 134.93 15.2 120.11 0.39 120.11 26.96 158.43 65.28 158.43 84.63 111.17 37.38 111.17 55.73 166.58 111.13 166.58 111.48 166.75 111.31 166.93 111.48 166.93 111.13 222.34 55.73 222.34 37.38 166.93 93.06"/><polygon points="111.17 148.56 111.17 128.37 55.58 187.79 0 128.39 0 148.58 46.14 197.89 55.58 207.99 65.03 197.89 111.17 148.56"/><polygon points="41.11 208.04 37.22 208.04 0 168.26 0 188.46 18.33 208.04 31.68 222.32 36.07 222.32 75.11 222.32 79.49 222.32 92.85 208.04 111.17 188.46 111.17 168.26 74.24 207.74 73.96 208.04 55.63 208.04 55.58 207.99 55.53 208.04 41.11 208.04"/><polygon points="83.14 139.65 56.48 168.15 29.81 139.65 56.48 111.15 83.14 139.65"/></svg>